# xmcd CD database file
#
# Track frame offsets:
#	150
#	13308
#	24339
#	35200
#	46251
#	58672
#	69017
#	80348
#	88610
#	99202
#	108769
#	119909
#	128093
#	139956
#	150407
#	163480
#	176754
#	186113
#	194992
#
# Disc length: 2689 seconds
#
# Revision: 0
# Processed by: cddbd v1.4PL0 Copyright (c) Steve Scherf et al.
# Submitted via: CDex 1.40Release
#
DISCID=0a0a7f13
DTITLE=William Harjo - Harjo
DYEAR=2002
DGENRE=Native American
TTITLE0=Creek Blessing
TTITLE1=Song for Hannah
TTITLE2=Song for Mes'ke
TTITLE3=Song for Chelse
TTITLE4=Hunting Song
TTITLE5=Wood Pecker Song
TTITLE6=Strawberry Song
TTITLE7=Deep in the Woods
TTITLE8=I comr from Oklahoma
TTITLE9=Party Time
TTITLE10=My Darling
TTITLE11=Raccoon Song
TTITLE12=Lakota Love Song
TTITLE13=Kiowa Love Song
TTITLE14=Lakota Wedding Song
TTITLE15=Ute Love Song
TTITLE16=Lodge Song
TTITLE17=Stick People Song
TTITLE18=Amazing Grace
EXTD=YEAR: 2002 ID3G: 64
EXTT0=
EXTT1=
EXTT2=
EXTT3=
EXTT4=
EXTT5=
EXTT6=
EXTT7=
EXTT8=
EXTT9=
EXTT10=
EXTT11=
EXTT12=
EXTT13=
EXTT14=
EXTT15=
EXTT16=
EXTT17=
EXTT18=
PLAYORDER=
